HIERARCHY
ROOT root
{
	OFFSET	0.000000	0.000000	0.000000
	CHANNELS 6 Xposition Yposition Zposition Zrotation Yrotation Xrotation
	JOINT lhipjoint
	{
		OFFSET	0.000000	0.000000	0.000000
		CHANNELS 3 Zrotation Yrotation Xrotation
		JOINT lfemur
		{
			OFFSET	1.363056	-1.794627	0.839290
			CHANNELS 3 Zrotation Yrotation Xrotation
			JOINT ltibia
			{
				OFFSET	2.448110	-6.726133	0.000000
				CHANNELS 3 Zrotation Yrotation Xrotation
				JOINT lfoot
				{
					OFFSET	2.562198	-7.039586	0.000000
					CHANNELS 3 Zrotation Yrotation Xrotation
					JOINT ltoes
					{
						OFFSET	0.157638	-0.433106	2.322550
						CHANNELS 3 Zrotation Yrotation Xrotation
						End Site
						{
							OFFSET	0.000000	-0.000000	1.189660
						}
					}
				}
			}
		}
	}
	JOINT rhipjoint
	{
		OFFSET	0.000000	0.000000	0.000000
		CHANNELS 3 Zrotation Yrotation Xrotation
		JOINT rfemur
		{
			OFFSET	-1.305517	-1.794627	0.839289
			CHANNELS 3 Zrotation Yrotation Xrotation
			JOINT rtibia
			{
				OFFSET	-2.542528	-6.985544	0.000000
				CHANNELS 3 Zrotation Yrotation Xrotation
				JOINT rfoot
				{
					OFFSET	-2.568255	-7.056228	0.000000
					CHANNELS 3 Zrotation Yrotation Xrotation
					JOINT rtoes
					{
						OFFSET	-0.164728	-0.452588	2.363148
						CHANNELS 3 Zrotation Yrotation Xrotation
						End Site
						{
							OFFSET	-0.000000	-0.000000	1.210820
						}
					}
				}
			}
		}
	}
	JOINT lowerback
	{
		OFFSET	0.000000	0.000000	0.000000
		CHANNELS 3 Zrotation Yrotation Xrotation
		JOINT upperback
		{
			OFFSET	0.028267	2.035590	-0.193378
			CHANNELS 3 Zrotation Yrotation Xrotation
			JOINT thorax
			{
				OFFSET	0.056717	2.048850	-0.042750
				CHANNELS 3 Zrotation Yrotation Xrotation
				JOINT lowerneck
				{
					OFFSET	0.040847	2.063911	0.048282
					CHANNELS 3 Zrotation Yrotation Xrotation
					JOINT upperneck
					{
						OFFSET	-0.054165	1.746242	0.172020
						CHANNELS 3 Zrotation Yrotation Xrotation
						JOINT head
						{
							OFFSET	0.104075	1.761358	-0.123974
							CHANNELS 3 Zrotation Yrotation Xrotation
							End Site
							{
								OFFSET	0.037205	1.770440	-0.062412
							}
						}
					}
				}
				JOINT lclavicle
				{
					OFFSET	0.040847	2.063911	0.048282
					CHANNELS 3 Zrotation Yrotation Xrotation
					JOINT lhumerus
					{
						OFFSET	3.362408	1.200889	-0.311209
						CHANNELS 3 Zrotation Yrotation Xrotation
						JOINT lradius
						{
							OFFSET	4.983000	-0.000000	-0.000000
							CHANNELS 3 Zrotation Yrotation Xrotation
							JOINT lwrist
							{
								OFFSET	3.483560	-0.000000	-0.000000
								CHANNELS 3 Zrotation Yrotation Xrotation
								JOINT lhand
								{
									OFFSET	1.741780	-0.000000	-0.000000
									CHANNELS 3 Zrotation Yrotation Xrotation
									JOINT lfingers
									{
										OFFSET	0.715259	-0.000000	-0.000000
										CHANNELS 3 Zrotation Yrotation Xrotation
										End Site
										{
											OFFSET	0.576661	-0.000000	-0.000000
										}
									}
								}
								JOINT lthumb
								{
									OFFSET	1.741780	-0.000000	-0.000000
									CHANNELS 3 Zrotation Yrotation Xrotation
									End Site
									{
										OFFSET	0.585465	-0.000000	0.585465
									}
								}
							}
						}
					}
				}
				JOINT rclavicle
				{
					OFFSET	0.040847	2.063911	0.048282
					CHANNELS 3 Zrotation Yrotation Xrotation
					JOINT rhumerus
					{
						OFFSET	-3.136600	1.374051	-0.404645
						CHANNELS 3 Zrotation Yrotation Xrotation
						JOINT rradius
						{
							OFFSET	-5.241900	-0.000000	-0.000000
							CHANNELS 3 Zrotation Yrotation Xrotation
							JOINT rwrist
							{
								OFFSET	-3.444170	-0.000000	-0.000000
								CHANNELS 3 Zrotation Yrotation Xrotation
								JOINT rhand
								{
									OFFSET	-1.722090	-0.000000	-0.000000
									CHANNELS 3 Zrotation Yrotation Xrotation
									JOINT rfingers
									{
										OFFSET	-0.622529	-0.000000	-0.000000
										CHANNELS 3 Zrotation Yrotation Xrotation
										End Site
										{
											OFFSET	-0.501899	-0.000000	-0.000000
										}
									}
								}
								JOINT rthumb
								{
									OFFSET	-1.722090	-0.000000	-0.000000
									CHANNELS 3 Zrotation Yrotation Xrotation
									End Site
									{
										OFFSET	-0.509562	-0.000000	0.509562
									}
								}
							}
						}
					}
				}
			}
		}
	}
}
MOTION
Frames:	6
Frame Time:	0.008333
	12.958900	27.263599	42.189201	-174.981003	-1.247700	-156.865997	0.000000	0.000000	0.000000	-14.053020	-2.267345	-22.225368	2.851432	10.450579	30.448515	2.437068	-14.728789	-28.437178	0.118066	2.215247	6.100898	0.000000	0.000000	0.000000	26.258459	7.344570	-20.737434	-2.774184	-10.320204	30.019987	-3.228165	3.535015	-33.212784	-0.203606	-2.905422	8.015553	5.495970	-6.749380	41.082996	-0.144286	-6.269071	-4.678140	0.598719	-3.014621	-27.701403	-32.886101	-13.707698	-14.035200	19.021002	-15.516701	17.113998	9.829581	-7.655880	12.252501	-32.886101	0.000000	0.000000	-69.354675	3.087991	48.959599	22.118883	-33.111118	-6.650671	0.000000	0.000000	23.862190	55.286842	-40.439690	-43.115990	-7.125019	0.000000	0.000000	9.189100	-25.702793	-12.374067	-32.886101	0.000000	0.000000	74.907944	7.591041	72.405731	-21.852327	32.809734	-6.505650	0.000001	0.000003	18.698399	-45.359970	-4.712244	4.755505	7.125019	0.000000	0.000000	-15.674479	-36.269642	-3.470714
	12.958700	27.262501	42.182598	-175.248001	-1.350590	-156.985992	0.000000	0.000000	0.000000	-14.306115	-2.361930	-22.087849	2.862865	10.469679	30.511484	2.448702	-14.770277	-28.507812	0.104380	2.083319	5.735963	0.000000	0.000000	0.000000	26.018810	7.304652	-20.636736	-2.792476	-10.351284	30.121948	-3.228509	3.255795	-33.272099	-0.201718	-2.891992	7.978199	5.426760	-6.876750	41.176300	-0.208392	-6.487580	-4.647720	0.694227	-3.084140	-27.712099	-33.019604	-13.739003	-14.236304	19.105001	-15.498497	17.305399	9.896630	-7.646671	12.382801	-33.019596	0.000000	0.000000	-69.287331	3.265505	48.802937	22.348177	-33.368282	-6.776357	0.000000	0.000000	23.186098	54.913826	-41.398251	-43.271149	-7.125019	0.000000	0.000000	8.594604	-26.416666	-11.608529	-33.019596	0.000000	0.000000	75.016853	7.672538	72.544479	-21.759653	32.704330	-6.455502	0.000000	0.000000	18.746998	-45.578846	-4.438215	4.514912	7.125019	0.000000	0.000000	-15.799785	-35.909756	-3.644147
	12.962700	27.263201	42.172100	-175.145020	-0.929246	-156.781998	0.000000	0.000000	0.000000	-14.344300	-2.159366	-22.336315	2.878586	10.495859	30.597878	2.454470	-14.653404	-28.524084	0.115526	2.191362	6.034812	0.000000	0.000000	0.000000	25.954870	7.678102	-20.763754	-2.808691	-10.378724	30.212069	-3.219070	3.426302	-33.185963	-0.210608	-2.954655	8.152536	5.050870	-6.796430	40.906406	-0.180042	-6.312410	-4.636759	0.741661	-2.853280	-27.527100	-32.974895	-13.794099	-14.493198	19.016001	-15.497000	17.532501	9.854262	-7.644490	12.505901	-32.974899	0.000000	0.000000	-69.241119	3.331880	48.814762	22.451759	-33.483818	-6.833413	0.000000	0.000000	22.859596	54.791042	-41.638027	-43.276150	-7.125019	0.000000	0.000000	8.431439	-26.576195	-11.395142	-32.974899	0.000000	0.000000	75.037521	7.743638	72.650146	-21.765574	32.711075	-6.458703	0.000001	0.000003	18.735197	-45.302505	-4.091899	4.124695	7.125019	0.000000	0.000000	-15.495514	-35.419090	-3.761503
	12.967600	27.258200	42.168499	-174.955994	-0.731586	-156.862000	0.000000	0.000000	0.000000	-14.201674	-1.908002	-22.296797	2.890688	10.515965	30.664270	2.442518	-14.710714	-28.465136	0.134572	2.364450	6.513987	0.000000	0.000000	0.000000	26.113754	7.779019	-20.676752	-2.825530	-10.407116	30.305410	-3.209404	3.661965	-33.086411	-0.233420	-3.109507	8.583771	4.948461	-6.682550	40.985500	-0.138816	-6.190351	-4.603651	0.774095	-2.789410	-27.487200	-32.768501	-13.743100	-14.548298	18.847700	-15.414001	17.578497	9.768251	-7.605100	12.469901	-32.768501	0.000000	0.000000	-69.169922	3.367496	49.083557	22.532705	-33.573841	-6.878125	0.000000	0.000000	22.679396	54.884968	-41.186546	-43.120251	-7.125019	0.000000	0.000000	8.675362	-26.193336	-11.704370	-32.768501	0.000000	0.000000	75.027000	7.802634	72.724838	-21.779142	32.726528	-6.466034	0.000000	0.000000	18.689196	-45.277454	-4.163236	4.192561	7.125019	0.000000	0.000000	-15.489592	-35.514988	-3.722483
	12.967700	27.257500	42.165298	-174.863998	-0.892496	-156.891998	0.000000	0.000000	0.000000	-14.014137	-2.215815	-22.187588	2.896582	10.525726	30.696545	2.428689	-14.618758	-28.375254	0.138492	2.398500	6.608314	0.000000	0.000000	0.000000	26.262955	7.798740	-20.685684	-2.843226	-10.436835	30.403238	-3.215386	3.678737	-33.115303	-0.260949	-3.286440	9.077261	5.120910	-6.778120	40.963406	-0.107144	-6.216761	-4.581161	0.734037	-2.819570	-27.455702	-32.556301	-13.636000	-14.562200	18.711102	-15.265900	17.537500	9.708589	-7.532851	12.376000	-32.556297	-0.000000	0.000000	-69.190170	3.360602	49.040894	22.538612	-33.580399	-6.881393	0.000000	0.000000	22.483490	54.791939	-41.503136	-43.201187	-7.125019	0.000000	0.000000	8.492088	-26.445837	-11.469886	-32.556297	-0.000000	0.000000	75.029228	7.880540	72.817787	-21.764515	32.709873	-6.458127	0.000001	0.000003	18.508093	-44.986454	-6.241387	6.201759	7.125019	0.000000	0.000000	-15.674622	-38.314949	-2.658579
	12.966500	27.260000	42.154800	-174.878998	-0.911730	-156.884003	0.000000	0.000000	0.000000	-13.993487	-2.307309	-22.137638	2.895586	10.524082	30.691101	2.407018	-14.634724	-28.255814	0.118415	2.218510	6.109927	0.000000	0.000000	0.000000	26.260607	7.848283	-20.690214	-2.861436	-10.467293	30.503614	-3.238810	3.733974	-33.230358	-0.282212	-3.416643	9.440957	5.165970	-6.811089	40.832397	-0.112843	-6.247921	-4.552320	0.711589	-2.840710	-27.359900	-32.433098	-13.541001	-14.637400	18.645298	-15.117000	17.567900	9.696570	-7.460211	12.338700	-32.433105	0.000000	-0.000000	-69.281586	3.399287	48.856834	22.538391	-33.580151	-6.881274	0.000000	0.000000	22.406893	54.652618	-41.853539	-43.250126	-7.125019	0.000000	0.000000	8.271749	-26.702417	-11.184177	-32.433105	0.000000	-0.000000	75.034760	7.959042	72.912231	-21.737555	32.679150	-6.443563	0.000001	0.000003	18.341791	-45.460632	-4.071209	4.126565	7.125019	0.000000	0.000000	-15.622578	-35.399910	-3.801896
